<svg width="1200" height="360" viewBox="0 0 1200 360" fill="none" xmlns="http://www.w3.org/2000/svg">
  <rect width="1200" height="360" rx="28" fill="#F6F9F6"/>

  <rect x="54" y="54" width="330" height="252" rx="22" fill="#FFFFFF" stroke="#D9E0DC"/>
  <circle cx="96" cy="100" r="18" fill="#2F8D56"/>
  <path d="M88 100L94 106L105 92" stroke="white" stroke-width="3.5" stroke-linecap="round" stroke-linejoin="round"/>
  <text x="128" y="108" fill="#101312" font-family="-apple-system, BlinkMacSystemFont, Segoe UI, sans-serif" font-size="25" font-weight="780">Capture fast</text>
  <text x="84" y="156" fill="#526158" font-family="-apple-system, BlinkMacSystemFont, Segoe UI, sans-serif" font-size="15" font-weight="600">Use one line to add title, tag, project,</text>
  <text x="84" y="180" fill="#526158" font-family="-apple-system, BlinkMacSystemFont, Segoe UI, sans-serif" font-size="15" font-weight="600">deadline, and recurrence.</text>
  <rect x="84" y="220" width="246" height="38" rx="10" fill="#F7FAF8" stroke="#D9E0DC"/>
  <text x="106" y="244" fill="#526158" font-family="-apple-system, BlinkMacSystemFont, Segoe UI, sans-serif" font-size="14" font-weight="700">Pay rent #home !monthly</text>

  <rect x="435" y="54" width="330" height="252" rx="22" fill="#FFFFFF" stroke="#D9E0DC"/>
  <circle cx="477" cy="100" r="18" fill="#4E83C5"/>
  <path d="M468 98H486M468 105H480M468 91H486" stroke="white" stroke-width="3" stroke-linecap="round"/>
  <text x="509" y="108" fill="#101312" font-family="-apple-system, BlinkMacSystemFont, Segoe UI, sans-serif" font-size="25" font-weight="780">Stay organized</text>
  <text x="465" y="156" fill="#526158" font-family="-apple-system, BlinkMacSystemFont, Segoe UI, sans-serif" font-size="15" font-weight="600">Projects, tags, search, Today view,</text>
  <text x="465" y="180" fill="#526158" font-family="-apple-system, BlinkMacSystemFont, Segoe UI, sans-serif" font-size="15" font-weight="600">and pinned tasks keep work scannable.</text>
  <rect x="465" y="220" width="68" height="26" rx="8" fill="#E4F0FF"/>
  <text x="483" y="238" fill="#22518B" font-family="-apple-system, BlinkMacSystemFont, Segoe UI, sans-serif" font-size="12" font-weight="800">#work</text>
  <rect x="543" y="220" width="76" height="26" rx="8" fill="#DFF4EC"/>
  <text x="561" y="238" fill="#1C6448" font-family="-apple-system, BlinkMacSystemFont, Segoe UI, sans-serif" font-size="12" font-weight="800">Today</text>
  <rect x="629" y="220" width="76" height="26" rx="8" fill="#FFF0D5"/>
  <text x="647" y="238" fill="#7A4B10" font-family="-apple-system, BlinkMacSystemFont, Segoe UI, sans-serif" font-size="12" font-weight="800">Pinned</text>

  <rect x="816" y="54" width="330" height="252" rx="22" fill="#FFFFFF" stroke="#D9E0DC"/>
  <circle cx="858" cy="100" r="18" fill="#8B75D9"/>
  <path d="M849 100C849 95 853 91 858 91C863 91 867 95 867 100C867 105 863 109 858 109C853 109 849 105 849 100Z" stroke="white" stroke-width="3"/>
  <path d="M858 87V83M858 117V113M871 100H875M841 100H845" stroke="white" stroke-width="3" stroke-linecap="round"/>
  <text x="890" y="108" fill="#101312" font-family="-apple-system, BlinkMacSystemFont, Segoe UI, sans-serif" font-size="25" font-weight="780">Recover cleanly</text>
  <text x="846" y="156" fill="#526158" font-family="-apple-system, BlinkMacSystemFont, Segoe UI, sans-serif" font-size="15" font-weight="600">Completed tasks move away, but stay</text>
  <text x="846" y="180" fill="#526158" font-family="-apple-system, BlinkMacSystemFont, Segoe UI, sans-serif" font-size="15" font-weight="600">available to restore or delete.</text>
  <rect x="846" y="220" width="82" height="32" rx="9" fill="#EEF3F0"/>
  <text x="864" y="241" fill="#526158" font-family="-apple-system, BlinkMacSystemFont, Segoe UI, sans-serif" font-size="13" font-weight="800">Restore</text>
  <rect x="940" y="220" width="74" height="32" rx="9" fill="#FFE8E6"/>
  <text x="960" y="241" fill="#9A2A25" font-family="-apple-system, BlinkMacSystemFont, Segoe UI, sans-serif" font-size="13" font-weight="800">Delete</text>
</svg>
