<svg width="1200" height="720" viewBox="0 0 1200 720" fill="none" xmlns="http://www.w3.org/2000/svg">
  <rect width="1200" height="720" rx="36" fill="#F3F6F4"/>
  <rect x="46" y="44" width="1108" height="632" rx="28" fill="#101312"/>
  <rect x="48" y="46" width="1104" height="628" rx="26" fill="#F8FAF8"/>

  <rect x="82" y="80" width="1036" height="560" rx="22" fill="#FFFFFF" stroke="#D7DEDA"/>
  <rect x="82" y="80" width="248" height="560" rx="22" fill="#EEF3F0"/>
  <path d="M330 80V640" stroke="#D9E0DC"/>

  <circle cx="114" cy="111" r="7" fill="#F36D5F"/>
  <circle cx="138" cy="111" r="7" fill="#F7C34A"/>
  <circle cx="162" cy="111" r="7" fill="#64C75C"/>

  <circle cx="126" cy="165" r="20" fill="#2F8D56"/>
  <path d="M116 165.5L123 172.5L137 156.5" stroke="white" stroke-width="4" stroke-linecap="round" stroke-linejoin="round"/>
  <text x="160" y="173" fill="#14201A" font-family="-apple-system, BlinkMacSystemFont, Segoe UI, sans-serif" font-size="24" font-weight="700">MiniDone</text>

  <rect x="110" y="222" width="186" height="40" rx="10" fill="#DCECE2"/>
  <text x="146" y="248" fill="#163A28" font-family="-apple-system, BlinkMacSystemFont, Segoe UI, sans-serif" font-size="15" font-weight="700">All tasks</text>
  <circle cx="126" cy="242" r="7" fill="#2F8D56"/>

  <text x="146" y="303" fill="#526158" font-family="-apple-system, BlinkMacSystemFont, Segoe UI, sans-serif" font-size="15" font-weight="600">Today</text>
  <text x="146" y="356" fill="#526158" font-family="-apple-system, BlinkMacSystemFont, Segoe UI, sans-serif" font-size="15" font-weight="600">Completed</text>
  <text x="110" y="424" fill="#7A857F" font-family="-apple-system, BlinkMacSystemFont, Segoe UI, sans-serif" font-size="12" font-weight="700" letter-spacing="1.2">PROJECTS</text>
  <rect x="110" y="446" width="186" height="38" rx="9" fill="#F8FAF8" stroke="#D9E0DC"/>
  <text x="136" y="470" fill="#526158" font-family="-apple-system, BlinkMacSystemFont, Segoe UI, sans-serif" font-size="14" font-weight="600">Launch</text>
  <rect x="110" y="494" width="186" height="38" rx="9" fill="#F8FAF8" stroke="#D9E0DC"/>
  <text x="136" y="518" fill="#526158" font-family="-apple-system, BlinkMacSystemFont, Segoe UI, sans-serif" font-size="14" font-weight="600">Personal</text>

  <text x="374" y="154" fill="#101312" font-family="-apple-system, BlinkMacSystemFont, Segoe UI, sans-serif" font-size="34" font-weight="750">All tasks</text>
  <text x="374" y="188" fill="#6B7770" font-family="-apple-system, BlinkMacSystemFont, Segoe UI, sans-serif" font-size="16" font-weight="500">A quiet native task list for quick capture, focused work, and clean recovery.</text>

  <rect x="374" y="226" width="660" height="58" rx="13" fill="#FBFCFB" stroke="#D8E0DB"/>
  <circle cx="406" cy="255" r="11" fill="#EEF3F0" stroke="#B9C7BF"/>
  <text x="431" y="261" fill="#7A857F" font-family="-apple-system, BlinkMacSystemFont, Segoe UI, sans-serif" font-size="17" font-weight="600">Plan release #work !tomorrow</text>
  <path d="M990 244L1002 256L990 268" stroke="#809086" stroke-width="2.5" stroke-linecap="round" stroke-linejoin="round"/>

  <rect x="374" y="322" width="660" height="72" rx="14" fill="#FFFFFF" stroke="#DCE3DF"/>
  <circle cx="406" cy="358" r="12" fill="#FFFFFF" stroke="#9AA9A0" stroke-width="2.4"/>
  <text x="432" y="352" fill="#16211B" font-family="-apple-system, BlinkMacSystemFont, Segoe UI, sans-serif" font-size="17" font-weight="700">Review onboarding copy</text>
  <rect x="432" y="365" width="60" height="20" rx="6" fill="#E4F0FF"/>
  <text x="445" y="380" fill="#22518B" font-family="-apple-system, BlinkMacSystemFont, Segoe UI, sans-serif" font-size="11" font-weight="700">#docs</text>
  <rect x="500" y="365" width="72" height="20" rx="6" fill="#FFF0D5"/>
  <text x="514" y="380" fill="#7A4B10" font-family="-apple-system, BlinkMacSystemFont, Segoe UI, sans-serif" font-size="11" font-weight="700">today</text>

  <rect x="374" y="410" width="660" height="72" rx="14" fill="#FFFFFF" stroke="#DCE3DF"/>
  <circle cx="406" cy="446" r="12" fill="#FFFFFF" stroke="#9AA9A0" stroke-width="2.4"/>
  <text x="432" y="440" fill="#16211B" font-family="-apple-system, BlinkMacSystemFont, Segoe UI, sans-serif" font-size="17" font-weight="700">Daily backup</text>
  <rect x="432" y="453" width="54" height="20" rx="6" fill="#DFF4EC"/>
  <text x="445" y="468" fill="#1C6448" font-family="-apple-system, BlinkMacSystemFont, Segoe UI, sans-serif" font-size="11" font-weight="700">#ops</text>
  <rect x="494" y="453" width="70" height="20" rx="6" fill="#EEF3F0"/>
  <text x="508" y="468" fill="#526158" font-family="-apple-system, BlinkMacSystemFont, Segoe UI, sans-serif" font-size="11" font-weight="700">daily</text>

  <rect x="374" y="498" width="660" height="72" rx="14" fill="#FFFFFF" stroke="#DCE3DF"/>
  <circle cx="406" cy="534" r="12" fill="#2F8D56"/>
  <path d="M399 534L404.5 539.5L413.5 528.5" stroke="white" stroke-width="2.6" stroke-linecap="round" stroke-linejoin="round"/>
  <text x="432" y="528" fill="#67726C" font-family="-apple-system, BlinkMacSystemFont, Segoe UI, sans-serif" font-size="17" font-weight="700" text-decoration="line-through">Ship the UI test pass</text>
  <rect x="432" y="541" width="82" height="20" rx="6" fill="#EEF3F0"/>
  <text x="446" y="556" fill="#526158" font-family="-apple-system, BlinkMacSystemFont, Segoe UI, sans-serif" font-size="11" font-weight="700">restorable</text>

  <rect x="830" y="126" width="204" height="42" rx="12" fill="#EEF7F2"/>
  <circle cx="854" cy="147" r="8" fill="#2F8D56"/>
  <text x="872" y="153" fill="#1F5638" font-family="-apple-system, BlinkMacSystemFont, Segoe UI, sans-serif" font-size="14" font-weight="800">Local-first SwiftUI</text>

  <text x="374" y="615" fill="#6B7770" font-family="-apple-system, BlinkMacSystemFont, Segoe UI, sans-serif" font-size="14" font-weight="600">macOS 14+ · SwiftData · Menu bar mini surface · Russian and English</text>
</svg>
