<svg width="1280" height="640" viewBox="0 0 1280 640" fill="none" xmlns="http://www.w3.org/2000/svg">
  <rect width="1280" height="640" fill="#101312"/>

  <rect x="56" y="56" width="1168" height="528" rx="36" fill="#F7FAF7"/>

  <rect x="92" y="92" width="396" height="456" rx="26" fill="#EAF1ED"/>
  <circle cx="263" cy="224" r="70" fill="#2F8D56"/>
  <path d="M231 224L255 248L299 194" stroke="white" stroke-width="12" stroke-linecap="round" stroke-linejoin="round"/>
  <text x="138" y="393" fill="#101312" font-family="-apple-system, BlinkMacSystemFont, Segoe UI, sans-serif" font-size="68" font-weight="800">MiniDone</text>
  <text x="138" y="447" fill="#526158" font-family="-apple-system, BlinkMacSystemFont, Segoe UI, sans-serif" font-size="24" font-weight="700">Quiet native task list</text>
  <text x="138" y="480" fill="#526158" font-family="-apple-system, BlinkMacSystemFont, Segoe UI, sans-serif" font-size="24" font-weight="700">for macOS.</text>

  <rect x="138" y="498" width="112" height="36" rx="12" fill="#DCECE2"/>
  <text x="164" y="521" fill="#1F5638" font-family="-apple-system, BlinkMacSystemFont, Segoe UI, sans-serif" font-size="15" font-weight="800">SwiftUI</text>
  <rect x="262" y="498" width="124" height="36" rx="12" fill="#E4F0FF"/>
  <text x="288" y="521" fill="#22518B" font-family="-apple-system, BlinkMacSystemFont, Segoe UI, sans-serif" font-size="15" font-weight="800">SwiftData</text>
  <rect x="398" y="498" width="60" height="36" rx="12" fill="#FFF0D5"/>
  <text x="418" y="521" fill="#7A4B10" font-family="-apple-system, BlinkMacSystemFont, Segoe UI, sans-serif" font-size="15" font-weight="800">14+</text>

  <rect x="522" y="92" width="610" height="456" rx="26" fill="#FFFFFF" stroke="#D7DFDA"/>
  <text x="610" y="179" fill="#101312" font-family="-apple-system, BlinkMacSystemFont, Segoe UI, sans-serif" font-size="42" font-weight="800">All tasks</text>
  <rect x="884" y="124" width="180" height="40" rx="12" fill="#EEF7F2"/>
  <text x="910" y="151" fill="#1F5638" font-family="-apple-system, BlinkMacSystemFont, Segoe UI, sans-serif" font-size="17" font-weight="800">Menu bar ready</text>

  <rect x="610" y="216" width="454" height="76" rx="14" fill="#FBFCFB" stroke="#D8E0DB"/>
  <circle cx="657" cy="262" r="19" fill="#FFFFFF" stroke="#9AA9A0" stroke-width="4"/>
  <text x="696" y="267" fill="#15211A" font-family="-apple-system, BlinkMacSystemFont, Segoe UI, sans-serif" font-size="24" font-weight="800">Plan launch #work</text>
  <rect x="926" y="246" width="88" height="30" rx="8" fill="#FFF0D5"/>
  <text x="946" y="266" fill="#7A4B10" font-family="-apple-system, BlinkMacSystemFont, Segoe UI, sans-serif" font-size="13" font-weight="800">tomorrow</text>

  <rect x="610" y="326" width="454" height="88" rx="16" fill="#FFFFFF" stroke="#DCE3DF"/>
  <circle cx="657" cy="374" r="19" fill="#FFFFFF" stroke="#9AA9A0" stroke-width="4"/>
  <text x="696" y="370" fill="#16211B" font-family="-apple-system, BlinkMacSystemFont, Segoe UI, sans-serif" font-size="25" font-weight="800">Review release notes</text>
  <rect x="696" y="384" width="90" height="26" rx="8" fill="#E4F0FF"/>
  <text x="724" y="402" fill="#22518B" font-family="-apple-system, BlinkMacSystemFont, Segoe UI, sans-serif" font-size="15" font-weight="800">#docs</text>
  <rect x="800" y="384" width="88" height="26" rx="8" fill="#FFF0D5"/>
  <text x="829" y="402" fill="#7A4B10" font-family="-apple-system, BlinkMacSystemFont, Segoe UI, sans-serif" font-size="15" font-weight="800">today</text>

  <rect x="610" y="440" width="454" height="88" rx="16" fill="#FFFFFF" stroke="#DCE3DF"/>
  <circle cx="657" cy="488" r="19" fill="#2F8D56"/>
  <path d="M649 488L657 496L668 480" stroke="white" stroke-width="4" stroke-linecap="round" stroke-linejoin="round"/>
  <text x="696" y="486" fill="#67726C" font-family="-apple-system, BlinkMacSystemFont, Segoe UI, sans-serif" font-size="24" font-weight="800" text-decoration="line-through">Clean up completed work</text>
  <rect x="696" y="500" width="128" height="24" rx="8" fill="#EEF3F0"/>
  <text x="739" y="517" fill="#526158" font-family="-apple-system, BlinkMacSystemFont, Segoe UI, sans-serif" font-size="15" font-weight="800">restore</text>

  <text x="610" y="569" fill="#526158" font-family="-apple-system, BlinkMacSystemFont, Segoe UI, sans-serif" font-size="18" font-weight="800">Fast capture. Clean focus. Russian and English.</text>
</svg>
